<?xml version="1.0" encoding="UTF-8" standalone="no"?>
<!-- Uploaded to: SVG Repo, www.svgrepo.com, Generator: SVG Repo Mixer Tools -->
<svg width="800px" height="800px" viewBox="-13.5 0 64 64" version="1.1" xmlns="http://www.w3.org/2000/svg" xmlns:xlink="http://www.w3.org/1999/xlink" xmlns:sketch="http://www.bohemiancoding.com/sketch/ns">
    
    <title>Ice-cream-2</title>
    <desc>Created with Sketch.</desc>
    <defs>
</defs>
    <g id="Page-1" stroke="none" stroke-width="1" fill="none" fill-rule="evenodd" sketch:type="MSPage">
        <g id="Ice-cream-2" sketch:type="MSLayerGroup" transform="translate(2.000000, 1.000000)" stroke="#6B6C6E" stroke-width="2">
            <path d="M33.1,38.5 C33.1,48 25.7,46.9 16.5,46.9 C7.4,46.9 -0.1,48 -0.1,38.5 C-0.1,5.3 7.3,0 16.5,0 C25.7,0 33.1,5.3 33.1,38.5 L33.1,38.5 Z" id="Shape" sketch:type="MSShapeGroup">
</path>
            <path d="M20.1,46.9 L20.1,61.1 C20.1,61.6 19.8,62 19.4,62 L12.8,62 C12.4,62 12.1,61.6 12.1,61.1 L12.1,46.9" id="Shape" sketch:type="MSShapeGroup">
</path>
            <path d="M1.5,18.1 C1.5,18.1 6.7,15.2 6.7,19.1 C6.7,21.6 3.7,26.6 8.3,25.8 C13.5,24.8 8.6,20.1 9.8,19 C11,17.9 13.5,17.7 17.9,18.1 C22.2,18.4 9.8,34.1 17.9,34.1 C25.2,34.1 20.3,18 23.6,18 C26.9,18 26.8,15.8 31.6,18" id="Shape" sketch:type="MSShapeGroup">
</path>
        </g>
    </g>
</svg>