<?xml version="1.0" encoding="utf-8"?>
<!-- Uploaded to: SVG Repo, www.svgrepo.com, Generator: SVG Repo Mixer Tools -->
<svg width="800px" height="800px" viewBox="0 0 1024 1024" class="icon"  version="1.1" xmlns="http://www.w3.org/2000/svg"><path d="M511.029357 943.467324c-18.805702 0-33.850673-15.253844-33.850673-33.850673V646.957301h67.702369v262.658326c0 18.806726-15.044971 33.851697-33.851696 33.851697z" fill="#F9AC82" /><path d="M503.92564 855.704993c-6.895868 0-12.537476-5.641608-12.537475-12.537476V676.420625c0-6.895868 5.641608-12.537476 12.537475-12.537476 6.895868 0 12.537476 5.641608 12.537476 12.537476v166.746892c0 7.10474-5.433759 12.537476-12.537476 12.537476zM503.92564 918.183499c-6.895868 0-12.537476-5.641608-12.537475-12.537475v-22.985202c0-6.895868 5.641608-12.537476 12.537475-12.537476 6.895868 0 12.537476 5.641608 12.537476 12.537476v22.985202c0 6.894844-5.433759 12.537476-12.537476 12.537475z" fill="#F8BC95" /><path d="M560.761515 75.461372h-38.447918c6.268226 16.089334 9.821108 33.6418 9.821108 52.029757 0 78.358968-63.522869 142.09071-142.09071 142.09071-15.253844 0-29.672197-2.298623-43.462908-6.895868v339.763035c0 63.313997 51.403139 114.717136 114.717136 114.717135h99.254419c63.313997 0 114.717136-51.403139 114.717136-114.717135V190.178508c0.208873-63.522869-51.194266-114.717136-114.508263-114.717136z" fill="#0083BF" /><path d="M636.612987 207.312205c-6.895868 0-12.537476-5.641608-12.537475-12.537476 0-34.478314-28.209065-62.687379-62.687379-62.687379-6.895868 0-12.537476-5.641608-12.537476-12.537476 0-6.895868 5.641608-12.537476 12.537476-12.537475 48.477898 0 87.761307 39.283408 87.761306 87.761306 0.001024 7.105764-5.641608 12.5385-12.536452 12.5385zM385.864495 623.972099c-6.895868 0-12.537476-5.641608-12.537476-12.537476V302.597021c0-6.895868 5.641608-12.537476 12.537476-12.537476s12.537476 5.641608 12.537476 12.537476v308.837602c0 6.895868-5.641608 12.537476-12.537476 12.537476z" fill="#0095DA" /><path d="M560.761515 62.923897H522.522469c-3.970627 0-7.731358 1.880877-10.238853 5.223862-2.298623 3.342986-2.92524 7.522485-1.672005 11.283217 4.388373 13.581839 6.686995 27.582447 6.686996 41.790903 0 73.970595-60.179884 134.150479-134.15048 134.150479-11.283216 0-22.567456-1.463132-33.432927-4.1795-3.760731-1.044363-7.731358-0.208873-10.865471 2.298623-3.134113 2.298623-4.806118 6.059353-4.806118 9.821108v339.136417c0 70.209864 57.044747 127.254611 127.254612 127.254611h3.342985v180.120883c0 25.492697 20.895452 46.388149 46.388149 46.388148 25.492697 0 46.388149-20.895452 46.388148-46.388148V729.703617h3.342986c70.209864 0 127.254611-57.044747 127.254611-127.254611V190.178508c0.001024-70.209864-57.25362-127.254611-127.253587-127.254611z m-28.417937 846.69173c0 11.701985-9.612235 21.313197-21.313197 21.313197-11.701985 0-21.313197-9.612235-21.313197-21.313197V729.494745h42.627417v180.120882z m130.597597-307.375494c0 56.418129-45.761531 102.17966-102.17966 102.17966h-99.25442c-56.418129 0-102.17966-45.761531-102.17966-102.17966V278.35756a153.111811 153.111811 0 0 0 24.029565 1.880877c87.761307 0 159.225431-71.4631 159.225431-159.22543 0-11.283216-1.253236-22.358584-3.551858-33.224055h21.730942c56.418129 0 102.17966 45.761531 102.17966 102.17966v412.271521z" fill="#1A3F6F" /></svg>